<svg xmlns="http://www.w3.org/2000/svg" viewBox="0 0 573.65 351.58"><title>math_lesson_sample</title><g id="Layer_2" data-name="Layer 2"><g id="Layer_1-2" data-name="Layer 1"><text transform="translate(79.32 66.11)" style="font-size:71.67980194091797px;fill:#231f20;font-family:ArialMT, Arial">+</text><text transform="translate(209.56 66.11)" style="font-size:71.67980194091797px;fill:#231f20;font-family:ArialMT, Arial">+</text><text transform="translate(339.81 66.11)" style="font-size:71.67980194091797px;fill:#231f20;font-family:ArialMT, Arial">=</text><text transform="translate(339.81 143.52)" style="font-size:71.67980194091797px;fill:#231f20;font-family:ArialMT, Arial">=</text><text transform="translate(335.79 238.5)" style="font-size:71.67980194091797px;fill:#231f20;font-family:ArialMT, Arial">=</text><text transform="translate(451.63 321.29)" style="font-size:71.67980194091797px;fill:#231f20;font-family:ArialMT, Arial">=</text><text transform="translate(493.92 325.16)" style="font-size:71.67980194091797px;fill:#231f20;font-family:ArialMT, Arial">??</text><text transform="translate(385.9 238.57)" style="font-size:71.67980194091797px;fill:#231f20;font-family:ArialMT, Arial">10</text><text transform="translate(392.92 143.59)" style="font-size:71.67980194091797px;fill:#231f20;font-family:ArialMT, Arial">23</text><text transform="translate(392.92 61.66)" style="font-size:71.67980194091797px;fill:#231f20;font-family:ArialMT, Arial">45</text><text transform="translate(79.39 151.19)" style="font-size:71.67980194091797px;fill:#231f20;font-family:ArialMT, Arial">+</text><text transform="translate(209.64 151.19)" style="font-size:71.67980194091797px;fill:#231f20;font-family:ArialMT, Arial">+</text><text transform="translate(79.39 236.2)" style="font-size:71.67980194091797px;fill:#231f20;font-family:ArialMT, Arial">+</text><text transform="translate(209.64 236.2)" style="font-size:71.67980194091797px;fill:#231f20;font-family:ArialMT, Arial">+</text><text transform="translate(79.39 321.22)" style="font-size:71.67980194091797px;fill:#231f20;font-family:ArialMT, Arial">+</text><text transform="translate(209.64 321.22)" style="font-size:71.67980194091797px;fill:#231f20;font-family:ArialMT, Arial">+</text><text transform="translate(320.1 305.52) rotate(45)" style="font-size:71.68012237548828px;fill:#231f20;font-family:ArialMT, Arial">+</text><polygon points="31.97 0 47.96 7.84 62.74 17.76 63.95 35.52 62.74 53.29 47.96 63.21 31.97 71.05 15.99 63.21 1.21 53.29 0 35.52 1.21 17.76 15.99 7.84 31.97 0" style="fill:#ee5958"/><polygon points="162.95 0 178.94 7.84 193.72 17.76 194.92 35.52 193.72 53.29 178.94 63.21 162.95 71.05 146.97 63.21 132.19 53.29 130.98 35.52 132.19 17.76 146.97 7.84 162.95 0" style="fill:#ee5958"/><polygon points="293.93 0 309.92 7.84 324.7 17.76 325.9 35.52 324.7 53.29 309.92 63.21 293.93 71.05 277.94 63.21 263.17 53.29 261.96 35.52 263.17 17.76 277.94 7.84 293.93 0" style="fill:#ee5958"/><polygon points="293.93 84.79 309.92 92.62 324.7 102.55 325.9 120.31 324.7 138.07 309.92 148 293.93 155.84 277.94 148 263.17 138.07 261.96 120.31 263.17 102.55 277.94 92.62 293.93 84.79" style="fill:#ee5958"/><polygon points="409.57 264.02 425.56 271.86 440.34 281.78 441.55 299.55 440.34 317.31 425.56 327.24 409.57 335.07 393.59 327.24 378.81 317.31 377.6 299.55 378.81 281.78 393.59 271.86 409.57 264.02" style="fill:#ee5958"/><path d="M49.46,107.56V115l-1,.43c-1.66.7-5.21,2.16-9.43,3.63-7,2.43-15.88,4.89-21.08,4a15.93,15.93,0,0,1-8.79-4.92A23.7,23.7,0,0,1,5,112.08c0-.1-.08-.19-.11-.29a1.82,1.82,0,0,1,.33-1.57l.92-1.15.27-.33a1.76,1.76,0,0,1,2-.58,1.12,1.12,0,0,1,.25.11c3.17,1.67,11.85,5.7,21.63,5.57,4.06,0,13.56-3.89,17.45-5.54l1.72-.74" style="fill:#f6be57"/><path d="M49.46,107.56a13.88,13.88,0,0,1-6.35,6.29c-1.69.62-3.32,1.13-4.9,1.55-17.34,4.62-27.34-2.06-31-5.3-.45-.41-.8-.76-1.06-1l.27-.33a1.76,1.76,0,0,1,2-.58,1.12,1.12,0,0,1,.25.11c3.17,1.67,11.85,5.7,21.63,5.57,4.06,0,13.55-3.89,17.45-5.54l1.72-.74" style="fill:#fbd463"/><path d="M47.22,131.62s-4.9.21-11.19.27h0c-10.24.11-24.15-.14-26.55-2.2a13.65,13.65,0,0,1-2.36-2.75c-.2-.29-.39-.59-.56-.89s-.39-.66-.57-1a31.69,31.69,0,0,1-2-4.68c0-.09-.06-.18-.09-.25a1.33,1.33,0,0,1,.29-1.32l.92-1,.26-.28a1.34,1.34,0,0,1,1.54-.32l.19.09q1.06.48,2.07.87c13.68,5.39,23,1.17,29-2.75,2.41-1.55,4.31-3.05,5.79-3.89a12.85,12.85,0,0,0,3.74-3.21h0a14.45,14.45,0,0,0,2.82-5.82l1.15.89.67.51s.31,9.4.62,11.05h0a1.3,1.3,0,0,0,0,.13c.32,1.19-5.81,16.56-5.81,16.56" style="fill:#f6be57"/><path d="M58.09,123.71C56.69,131.4,47,139.58,35,142.81s-25.81-4.95-27.1-6.56c-.88-1.1-2.5-3.4-3.45-4.75a2.32,2.32,0,0,1-.35-.77,2.3,2.3,0,0,1,.14-1.46l.91-2a2.27,2.27,0,0,1,1.45-1.23,2.15,2.15,0,0,1,.68-.08,1.77,1.77,0,0,1,.56.09c17.12,5,19.69,2.07,27.16.72,6.17-1.11,10.91-7,13.51-11.32.38-.63.71-1.22,1-1.76s.4-.78.56-1.11a20.09,20.09,0,0,0,1.52-8.4h0c0-.19,0-.3,0-.3h3.66s-1.83,4.73,0,8.71,4.3,3.44,2.91,11.12" style="fill:#f6be57"/><path d="M53,114.93h0c-1.34,6.11-5.09,12.48-14.13,16-1,.37-1.91.7-2.84,1h0c-15.48,4.85-26.07-1.09-29.62-3.6a13,13,0,0,1-1.3-1,2.23,2.23,0,0,1,1.44-1.23,2.25,2.25,0,0,1,.69-.08,1.77,1.77,0,0,1,.56.09c17.12,5,19.69,2.07,27.16.72,6.17-1.11,10.91-7,13.51-11.32.38-.63.71-1.22,1-1.76s.4-.78.56-1.11a20.09,20.09,0,0,0,1.52-8.4h0c0-.19,0-.3,0-.3h1.79A32,32,0,0,1,53,114.93" style="fill:#fbd463"/><path d="M51.71,103.37c0,.16-.06.33-.1.51s0,.2-.07.31a19.58,19.58,0,0,1-2.08,5A26.84,26.84,0,0,1,39,119.09h0a38,38,0,0,1-9.66,3.63c-13.36,3.15-20.78-1.78-23.29-4a8.89,8.89,0,0,1-1-1l.26-.28a1.34,1.34,0,0,1,1.54-.32l.19.09q1.06.48,2.07.87c13.68,5.39,23,1.17,29-2.75,2.41-1.55,4.31-3.05,5.79-3.89a13,13,0,0,0,3.74-3.21h0a14.5,14.5,0,0,0,2.81-5.82Z" style="fill:#fbd463"/><path d="M50,99.87,51,98.52a2.79,2.79,0,0,1,1.72-1.44,2.4,2.4,0,0,1,1.86.85c.42.41,3.07.32,3.39.8a3.86,3.86,0,0,1,.72,2.63,2,2,0,0,1-.42,1,3.32,3.32,0,0,1-.88.64l-1.13.63a9.62,9.62,0,0,1-2.21,1,3.35,3.35,0,0,1-2.58-.28,1.92,1.92,0,0,1-.9-2.26c.46-1-1.09-1.31-.5-2.19" style="fill:#4f5d7e"/><path d="M8.41,108.16c0,.74-.61,1.42-1.17,1.94l-.19.18c-.54.5-1.31.84-1.82,1.35l-.3.16a1.82,1.82,0,0,1,.33-1.57l.92-1.15.27-.33a1.76,1.76,0,0,1,2-.58" style="fill:#4f5d7e"/><path d="M7.1,117.28a3.23,3.23,0,0,1-1,1.47c-.11.11-.22.2-.31.3-.54.49-1.28.82-1.79,1.32,0-.09-.06-.18-.09-.25a1.33,1.33,0,0,1,.29-1.32l.92-1,.26-.28a1.34,1.34,0,0,1,1.54-.32l.19.09" style="fill:#4f5d7e"/><path d="M7.12,126.93a7.56,7.56,0,0,1-.63,1.24l-.08.12c-.38.59-1,1.1-1.28,1.7a2.53,2.53,0,0,1-.79.63,1,1,0,0,1-.28.11,2.3,2.3,0,0,1,.14-1.46l.91-2a2.23,2.23,0,0,1,1.44-1.23,2.25,2.25,0,0,1,.69-.08,2,2,0,0,1-.12,1" style="fill:#4f5d7e"/><path d="M178.52,107.56V115l-1,.43c-1.66.7-5.21,2.16-9.43,3.63-7,2.43-15.88,4.89-21.08,4a15.93,15.93,0,0,1-8.79-4.92,23.7,23.7,0,0,1-4.13-6.07,1.66,1.66,0,0,1-.1-.29,1.78,1.78,0,0,1,.32-1.57l.92-1.15.27-.33a1.76,1.76,0,0,1,2-.58,1.12,1.12,0,0,1,.25.11c3.18,1.67,11.85,5.7,21.63,5.57,4.06,0,13.56-3.89,17.46-5.54l1.71-.74" style="fill:#f6be57"/><path d="M178.52,107.56a13.88,13.88,0,0,1-6.35,6.29c-1.69.62-3.32,1.13-4.9,1.55-17.34,4.62-27.34-2.06-31-5.3-.45-.41-.8-.76-1.06-1l.27-.33a1.76,1.76,0,0,1,2-.58,1.12,1.12,0,0,1,.25.11c3.18,1.67,11.85,5.7,21.63,5.57,4.06,0,13.56-3.89,17.46-5.54l1.71-.74" style="fill:#fbd463"/><path d="M176.28,131.62s-4.9.21-11.19.27h0c-10.24.11-24.15-.14-26.55-2.2a13.65,13.65,0,0,1-2.36-2.75c-.2-.29-.39-.59-.56-.89s-.39-.66-.57-1a32.82,32.82,0,0,1-2-4.68c0-.09-.06-.18-.09-.25a1.33,1.33,0,0,1,.29-1.32l.92-1,.26-.28a1.34,1.34,0,0,1,1.54-.32l.19.09q1.07.48,2.07.87c13.68,5.39,23,1.17,29-2.75,2.41-1.55,4.31-3.05,5.79-3.89a12.85,12.85,0,0,0,3.74-3.21h0a14.5,14.5,0,0,0,2.81-5.82l1.16.89.66.51s.31,9.4.62,11.05h0a1.3,1.3,0,0,0,0,.13c.32,1.19-5.81,16.56-5.81,16.56" style="fill:#f6be57"/><path d="M187.15,123.71c-1.4,7.69-11.08,15.87-23.13,19.1s-25.81-4.95-27.1-6.56c-.88-1.1-2.5-3.4-3.45-4.75a2.32,2.32,0,0,1-.35-.77,2.3,2.3,0,0,1,.14-1.46l.91-2a2.25,2.25,0,0,1,1.45-1.23,2.15,2.15,0,0,1,.68-.08,1.77,1.77,0,0,1,.56.09c17.12,5,19.69,2.07,27.16.72,6.17-1.11,10.91-7,13.51-11.32.38-.63.71-1.22,1-1.76s.4-.78.56-1.11a20.09,20.09,0,0,0,1.52-8.4h0c0-.19,0-.3,0-.3h3.66s-1.83,4.73,0,8.71,4.3,3.44,2.91,11.12" style="fill:#f6be57"/><path d="M182.06,114.93h0c-1.34,6.11-5.09,12.48-14.13,16-1,.37-1.91.7-2.84,1h0c-15.48,4.85-26.07-1.09-29.62-3.6a14.71,14.71,0,0,1-1.3-1,2.27,2.27,0,0,1,1.45-1.23,2.22,2.22,0,0,1,.68-.08,1.77,1.77,0,0,1,.56.09c17.12,5,19.69,2.07,27.16.72,6.17-1.11,10.91-7,13.51-11.32.38-.63.71-1.22,1-1.76s.4-.78.56-1.11a20.09,20.09,0,0,0,1.52-8.4h0c0-.19,0-.3,0-.3h1.79a32,32,0,0,1-.31,11.05" style="fill:#fbd463"/><path d="M180.78,103.37c0,.16-.07.33-.11.51s0,.2-.07.31a19.58,19.58,0,0,1-2.08,5,26.84,26.84,0,0,1-10.42,9.91h0a38,38,0,0,1-9.66,3.63c-13.36,3.15-20.78-1.78-23.29-4a8.89,8.89,0,0,1-1-1l.26-.28a1.34,1.34,0,0,1,1.54-.32l.19.09q1.07.48,2.07.87c13.68,5.39,23,1.17,29-2.75,2.41-1.55,4.31-3.05,5.79-3.89a13,13,0,0,0,3.74-3.21h0a14.5,14.5,0,0,0,2.81-5.82Z" style="fill:#fbd463"/><path d="M179.1,99.87l.93-1.35a2.79,2.79,0,0,1,1.72-1.44,2.4,2.4,0,0,1,1.86.85c.42.41,3.07.32,3.39.8a3.86,3.86,0,0,1,.72,2.63,2,2,0,0,1-.42,1,3.32,3.32,0,0,1-.88.64l-1.13.63a9.62,9.62,0,0,1-2.21,1,3.35,3.35,0,0,1-2.58-.28,1.92,1.92,0,0,1-.9-2.26c.46-1-1.09-1.31-.5-2.19" style="fill:#4f5d7e"/><path d="M137.47,108.16c0,.74-.61,1.42-1.17,1.94l-.19.18c-.54.5-1.31.84-1.82,1.35l-.29.16a1.78,1.78,0,0,1,.32-1.57l.92-1.15.27-.33a1.76,1.76,0,0,1,2-.58" style="fill:#4f5d7e"/><path d="M136.16,117.28a3.23,3.23,0,0,1-1,1.47l-.31.3c-.54.49-1.28.82-1.79,1.32,0-.09-.06-.18-.09-.25a1.33,1.33,0,0,1,.29-1.32l.92-1,.26-.28a1.34,1.34,0,0,1,1.54-.32l.19.09" style="fill:#4f5d7e"/><path d="M136.18,126.93a7.56,7.56,0,0,1-.63,1.24.83.83,0,0,1-.08.12c-.38.59-1,1.1-1.28,1.7a2.53,2.53,0,0,1-.79.63.86.86,0,0,1-.28.11,2.3,2.3,0,0,1,.14-1.46l.91-2a2.27,2.27,0,0,1,1.45-1.23,2.22,2.22,0,0,1,.68-.08,2,2,0,0,1-.12,1" style="fill:#4f5d7e"/><path d="M50.17,195.64v7.48l-1,.43c-1.65.7-5.2,2.15-9.42,3.62-7,2.43-15.88,4.89-21.08,4a15.85,15.85,0,0,1-8.79-4.91,23.28,23.28,0,0,1-4.13-6.08,1.45,1.45,0,0,1-.11-.29A1.76,1.76,0,0,1,6,198.31l.92-1.16.26-.33a1.76,1.76,0,0,1,2-.57l.25.1c3.17,1.67,11.85,5.7,21.63,5.57,4.06,0,13.55-3.89,17.45-5.54,1.07-.45,1.72-.74,1.72-.74" style="fill:#f6be57"/><path d="M50.17,195.64a13.93,13.93,0,0,1-6.35,6.3q-2.53.92-4.9,1.55c-17.34,4.62-27.35-2.07-31-5.31-.45-.41-.81-.76-1.06-1l.26-.33a1.76,1.76,0,0,1,2-.57l.25.1c3.17,1.68,11.85,5.7,21.63,5.57,4.06,0,13.55-3.89,17.45-5.54,1.07-.45,1.72-.74,1.72-.74" style="fill:#fbd463"/><path d="M47.93,219.71s-4.9.2-11.19.27h0c-10.24.11-24.16-.14-26.55-2.21A13.46,13.46,0,0,1,7.82,215c-.19-.29-.38-.58-.56-.88l-.56-1a31.52,31.52,0,0,1-2-4.69c0-.09-.05-.17-.08-.25a1.33,1.33,0,0,1,.29-1.32l.92-1,.26-.29a1.35,1.35,0,0,1,1.54-.31l.19.08c.7.32,1.39.61,2.07.88,13.68,5.38,23,1.16,29-2.75,2.41-1.55,4.31-3.05,5.79-3.89a13.15,13.15,0,0,0,3.74-3.21h0a14.5,14.5,0,0,0,2.81-5.82l1.16.89.67.51s.31,9.41.62,11.06h0l0,.13c.32,1.18-5.81,16.56-5.81,16.56" style="fill:#f6be57"/><path d="M58.79,211.8c-1.4,7.69-11.07,15.86-23.12,19.09s-25.81-4.95-27.1-6.56c-.88-1.1-2.5-3.39-3.45-4.75a2.25,2.25,0,0,1-.21-2.23l.91-2a2.29,2.29,0,0,1,2.12-1.32,2.82,2.82,0,0,1,.57.09c17.12,5,19.68,2.08,27.16.73,6.17-1.11,10.91-7,13.5-11.32.38-.63.72-1.23,1-1.77s.4-.77.56-1.11a19.83,19.83,0,0,0,1.51-8.4h0c0-.2,0-.31,0-.31h3.66s-1.83,4.73,0,8.71,4.3,3.44,2.9,11.13" style="fill:#f6be57"/><path d="M53.71,203h0c-1.34,6.11-5.09,12.48-14.13,16-1,.37-1.91.7-2.84,1h0c-15.49,4.85-26.08-1.1-29.62-3.6a15.15,15.15,0,0,1-1.3-1,2.29,2.29,0,0,1,2.12-1.32,2.82,2.82,0,0,1,.57.09c17.12,5,19.68,2.08,27.16.73,6.17-1.11,10.91-7,13.5-11.32.38-.63.72-1.23,1-1.77s.4-.77.56-1.11a19.83,19.83,0,0,0,1.51-8.4h0c0-.2,0-.31,0-.31H54A32.25,32.25,0,0,1,53.71,203" style="fill:#fbd463"/><path d="M52.42,191.45c0,.17-.06.34-.1.51s0,.21-.08.31a19,19,0,0,1-2.07,5,26.77,26.77,0,0,1-10.42,9.91h0a37.75,37.75,0,0,1-9.65,3.64C16.73,214,9.31,209,6.8,206.84a10.18,10.18,0,0,1-1-1l.26-.29a1.35,1.35,0,0,1,1.54-.31l.19.08c.7.32,1.39.61,2.07.88,13.68,5.38,23,1.16,29-2.75,2.41-1.55,4.31-3.05,5.79-3.89a13,13,0,0,0,3.74-3.22h0a14.5,14.5,0,0,0,2.81-5.82Z" style="fill:#fbd463"/><path d="M50.75,188l.92-1.36a2.8,2.8,0,0,1,1.73-1.43,2.33,2.33,0,0,1,1.86.85c.42.41,3.07.31,3.38.8a3.8,3.8,0,0,1,.73,2.62,1.92,1.92,0,0,1-.43.95,3.06,3.06,0,0,1-.87.64l-1.13.64a9.79,9.79,0,0,1-2.21,1,3.33,3.33,0,0,1-2.59-.28,1.9,1.9,0,0,1-.89-2.25c.46-1-1.1-1.32-.5-2.19" style="fill:#4f5d7e"/><path d="M9.12,196.25c0,.74-.62,1.41-1.17,1.93l-.19.18c-.55.51-1.31.84-1.83,1.35a2.69,2.69,0,0,1-.29.16A1.76,1.76,0,0,1,6,198.31l.92-1.16.26-.33a1.76,1.76,0,0,1,2-.57" style="fill:#4f5d7e"/><path d="M7.81,205.36a3.26,3.26,0,0,1-1,1.48l-.32.29c-.53.5-1.27.82-1.79,1.32,0-.09-.05-.17-.08-.25a1.33,1.33,0,0,1,.29-1.32l.92-1,.26-.29a1.35,1.35,0,0,1,1.54-.31l.19.08" style="fill:#4f5d7e"/><path d="M7.82,215a6.73,6.73,0,0,1-.62,1.23l-.08.13c-.38.59-1,1.09-1.28,1.69a2.71,2.71,0,0,1-.79.64,1.33,1.33,0,0,1-.28.1,2.3,2.3,0,0,1,.14-1.46l.91-2a2.23,2.23,0,0,1,1.44-1.23,2,2,0,0,1,.69-.09,2,2,0,0,1-.13,1" style="fill:#4f5d7e"/><path d="M181.15,286.79v7.48l-1,.43c-1.65.7-5.2,2.15-9.43,3.62-7,2.43-15.87,4.89-21.07,4a15.85,15.85,0,0,1-8.79-4.91,23.45,23.45,0,0,1-4.13-6.08,1.45,1.45,0,0,1-.11-.29,1.76,1.76,0,0,1,.33-1.56l.92-1.16.26-.33a1.78,1.78,0,0,1,2-.58l.25.11c3.17,1.67,11.85,5.7,21.63,5.57,4.06-.05,13.55-3.89,17.45-5.54,1.07-.45,1.72-.74,1.72-.74" style="fill:#f6be57"/><path d="M181.15,286.79a13.93,13.93,0,0,1-6.35,6.3c-1.69.61-3.33,1.13-4.9,1.55-17.35,4.62-27.35-2.07-31-5.31-.45-.41-.81-.76-1.06-1l.26-.33a1.78,1.78,0,0,1,2-.58l.25.11c3.17,1.67,11.85,5.7,21.63,5.57,4.06-.05,13.55-3.89,17.45-5.54,1.07-.45,1.72-.74,1.72-.74" style="fill:#fbd463"/><path d="M178.91,310.86s-4.9.2-11.19.27h0c-10.24.11-24.16-.14-26.56-2.21a14,14,0,0,1-2.36-2.75c-.19-.29-.38-.58-.56-.88s-.38-.67-.56-1a31.52,31.52,0,0,1-2-4.69c0-.09,0-.17-.08-.25a1.33,1.33,0,0,1,.29-1.32l.92-1,.26-.29a1.33,1.33,0,0,1,1.54-.31l.19.08c.7.32,1.39.61,2.07.88,13.68,5.38,23,1.16,29-2.76,2.41-1.54,4.31-3,5.78-3.88a13.06,13.06,0,0,0,3.75-3.21h0a14.5,14.5,0,0,0,2.81-5.82l1.16.89.67.51s.31,9.41.62,11.05h0l0,.13c.32,1.18-5.81,16.56-5.81,16.56" style="fill:#f6be57"/><path d="M189.77,303c-1.4,7.69-11.08,15.86-23.12,19.09s-25.81-5-27.1-6.56c-.88-1.1-2.51-3.39-3.45-4.75a2.07,2.07,0,0,1-.35-.77,2.24,2.24,0,0,1,.14-1.46l.91-2a2.2,2.2,0,0,1,1.44-1.23,2,2,0,0,1,.68-.09,2.82,2.82,0,0,1,.57.09c17.12,5,19.68,2.08,27.16.73,6.17-1.11,10.91-7,13.5-11.32.38-.63.72-1.23,1-1.77s.4-.77.56-1.11a19.83,19.83,0,0,0,1.51-8.4h0c0-.2,0-.31,0-.31h3.66s-1.83,4.73,0,8.71,4.3,3.44,2.9,11.13" style="fill:#f6be57"/><path d="M184.69,294.16h0c-1.34,6.11-5.09,12.48-14.13,16-1,.37-1.91.7-2.84,1h0c-15.49,4.85-26.08-1.1-29.62-3.6a15.15,15.15,0,0,1-1.3-1,2.2,2.2,0,0,1,1.44-1.23,2,2,0,0,1,.68-.09,2.82,2.82,0,0,1,.57.09c17.12,5,19.68,2.08,27.16.73,6.17-1.11,10.91-7,13.5-11.32.38-.63.72-1.23,1-1.77s.4-.77.56-1.11a19.83,19.83,0,0,0,1.51-8.4h0c0-.2,0-.31,0-.31H185a32.19,32.19,0,0,1-.31,11.05" style="fill:#fbd463"/><path d="M183.4,282.6c0,.16-.06.34-.1.51s-.05.2-.08.31a19.16,19.16,0,0,1-2.07,5,26.73,26.73,0,0,1-10.43,9.91h0a38.06,38.06,0,0,1-9.66,3.64c-13.35,3.14-20.77-1.79-23.28-4a9.57,9.57,0,0,1-1-1l.26-.29a1.33,1.33,0,0,1,1.54-.31l.19.08c.7.32,1.39.61,2.07.88,13.68,5.38,23,1.16,29-2.76,2.41-1.54,4.31-3.05,5.78-3.88a12.94,12.94,0,0,0,3.75-3.22h0a14.5,14.5,0,0,0,2.81-5.82Z" style="fill:#fbd463"/><path d="M181.73,279.11l.92-1.36a2.8,2.8,0,0,1,1.73-1.43,2.35,2.35,0,0,1,1.86.85c.42.4,3.07.31,3.38.8a3.79,3.79,0,0,1,.73,2.62,1.92,1.92,0,0,1-.43,1,3.06,3.06,0,0,1-.87.64c-.38.21-.76.42-1.13.64a9.79,9.79,0,0,1-2.21,1,3.33,3.33,0,0,1-2.59-.28,1.91,1.91,0,0,1-.89-2.26c.46-1-1.1-1.31-.5-2.18" style="fill:#4f5d7e"/><path d="M140.1,287.4c0,.73-.62,1.41-1.17,1.93l-.19.18c-.55.51-1.31.84-1.83,1.35a2.69,2.69,0,0,1-.29.16,1.76,1.76,0,0,1,.33-1.56l.92-1.16.26-.33a1.76,1.76,0,0,1,2-.57" style="fill:#4f5d7e"/><path d="M138.79,296.51a3.31,3.31,0,0,1-1,1.47l-.32.3c-.53.49-1.28.82-1.79,1.32,0-.09,0-.17-.08-.25a1.33,1.33,0,0,1,.29-1.32l.92-1,.26-.29a1.33,1.33,0,0,1,1.54-.31l.19.08" style="fill:#4f5d7e"/><path d="M138.8,306.17a7.44,7.44,0,0,1-.62,1.23l-.08.13c-.38.59-1,1.09-1.28,1.69a3,3,0,0,1-.79.64,1.33,1.33,0,0,1-.28.1,2.24,2.24,0,0,1,.14-1.46l.91-2a2.23,2.23,0,0,1,1.44-1.23,2,2,0,0,1,.68-.09,1.84,1.84,0,0,1-.12,1" style="fill:#4f5d7e"/><path d="M312.13,285.29v7.48l-1,.42c-1.65.7-5.2,2.16-9.43,3.63-7,2.43-15.88,4.89-21.07,4a15.8,15.8,0,0,1-8.79-4.92,23.43,23.43,0,0,1-4.13-6.07,1.45,1.45,0,0,1-.11-.29,1.75,1.75,0,0,1,.32-1.56l.92-1.16.27-.33a1.78,1.78,0,0,1,2-.58,1.74,1.74,0,0,1,.25.11c3.17,1.67,11.85,5.7,21.63,5.57,4.05-.05,13.55-3.89,17.45-5.54l1.72-.74" style="fill:#f6be57"/><path d="M312.13,285.29a13.88,13.88,0,0,1-6.35,6.29c-1.69.62-3.33,1.13-4.9,1.55-17.35,4.63-27.35-2.06-31-5.3-.46-.41-.81-.76-1.07-1l.27-.33a1.77,1.77,0,0,1,2-.58,1.74,1.74,0,0,1,.25.11c3.17,1.67,11.85,5.7,21.63,5.57,4.05-.05,13.55-3.89,17.45-5.54l1.72-.74" style="fill:#fbd463"/><path d="M309.89,309.35s-4.9.21-11.19.27h0c-10.24.11-24.16-.14-26.56-2.2a14,14,0,0,1-2.36-2.75c-.2-.29-.38-.59-.56-.89s-.38-.66-.56-1a31.94,31.94,0,0,1-2-4.68c0-.09-.06-.17-.08-.25a1.33,1.33,0,0,1,.29-1.32l.92-1,.26-.28a1.33,1.33,0,0,1,1.54-.32l.19.09q1.05.48,2.07.87c13.67,5.39,23,1.17,29-2.75,2.41-1.55,4.31-3.05,5.78-3.89a12.89,12.89,0,0,0,3.75-3.21h0a14.5,14.5,0,0,0,2.81-5.82l1.16.89.67.51s.3,9.4.62,11.05h0a.86.86,0,0,0,0,.13c.32,1.19-5.81,16.56-5.81,16.56" style="fill:#f6be57"/><path d="M320.75,301.45c-1.4,7.68-11.08,15.86-23.12,19.09s-25.81-5-27.1-6.56c-.88-1.1-2.51-3.4-3.46-4.75a2.3,2.3,0,0,1-.34-.77,2.24,2.24,0,0,1,.14-1.46l.91-2a2.26,2.26,0,0,1,1.44-1.23,2.22,2.22,0,0,1,.68-.08,2.26,2.26,0,0,1,.57.09c17.12,5,19.68,2.08,27.16.72,6.17-1.11,10.91-7,13.5-11.32.38-.62.71-1.22,1-1.76s.4-.78.55-1.11a19.76,19.76,0,0,0,1.52-8.4h0c0-.2,0-.31,0-.31h3.66s-1.83,4.73,0,8.71,4.3,3.44,2.9,11.13" style="fill:#f6be57"/><path d="M315.67,292.66h0c-1.34,6.11-5.09,12.49-14.13,16-1,.38-1.92.7-2.84,1h0c-15.48,4.84-26.07-1.1-29.61-3.6-.86-.61-1.31-1-1.31-1a2.28,2.28,0,0,1,1.45-1.24,2.22,2.22,0,0,1,.68-.08,2.26,2.26,0,0,1,.57.09c17.12,5,19.68,2.08,27.16.72,6.17-1.11,10.91-7,13.5-11.32.38-.62.71-1.22,1-1.76s.4-.78.55-1.11a19.91,19.91,0,0,0,1.52-8.4h0c0-.2,0-.31,0-.31H316a32.2,32.2,0,0,1-.31,11.05" style="fill:#fbd463"/><path d="M314.38,281.1c0,.16-.06.33-.1.51s0,.2-.08.31a19.16,19.16,0,0,1-2.07,5,26.8,26.8,0,0,1-10.43,9.91h0a37.69,37.69,0,0,1-9.66,3.63c-13.35,3.15-20.78-1.78-23.29-4a9.25,9.25,0,0,1-1-1l.26-.28a1.33,1.33,0,0,1,1.54-.32l.19.09q1.05.48,2.07.87c13.67,5.39,23,1.17,29-2.75,2.4-1.55,4.31-3.05,5.78-3.89a12.76,12.76,0,0,0,3.75-3.21h0a14.5,14.5,0,0,0,2.81-5.82Z" style="fill:#fbd463"/><path d="M312.71,277.6l.92-1.35c.44-.64,1-1.34,1.73-1.44a2.39,2.39,0,0,1,1.86.86c.41.4,3.07.31,3.38.8a3.77,3.77,0,0,1,.72,2.62,1.9,1.9,0,0,1-.42,1,3.43,3.43,0,0,1-.87.64l-1.13.63a9.69,9.69,0,0,1-2.22,1,3.35,3.35,0,0,1-2.58-.28,1.91,1.91,0,0,1-.89-2.26c.46-1-1.1-1.31-.5-2.19" style="fill:#4f5d7e"/><path d="M271.08,285.89a2.91,2.91,0,0,1-1.17,1.94l-.19.18c-.55.5-1.32.84-1.83,1.35l-.29.16a1.73,1.73,0,0,1,.33-1.56l.92-1.16.26-.33a1.77,1.77,0,0,1,2-.58" style="fill:#4f5d7e"/><path d="M269.77,295a3.31,3.31,0,0,1-1,1.47l-.32.3c-.53.49-1.28.82-1.79,1.32,0-.09-.06-.17-.08-.25a1.35,1.35,0,0,1,.28-1.32l.93-1,.26-.28a1.33,1.33,0,0,1,1.54-.32l.19.09" style="fill:#4f5d7e"/><path d="M269.78,304.67a7.85,7.85,0,0,1-.62,1.23l-.08.12c-.38.59-1,1.1-1.28,1.7a3,3,0,0,1-.79.64,1.57,1.57,0,0,1-.28.1,2.23,2.23,0,0,1,.14-1.46l.91-2a2.23,2.23,0,0,1,2.12-1.32,1.94,1.94,0,0,1-.12,1" style="fill:#4f5d7e"/><path d="M163,181.33a28.6,28.6,0,1,1-28.59,28.6A28.61,28.61,0,0,1,163,181.33" style="fill:#eab24c"/><path d="M163,181.33c-.51,0-1,0-1.52,0a28.59,28.59,0,0,1,0,57.1c.5,0,1,0,1.52,0a28.6,28.6,0,1,0,0-57.19" style="fill:#e59543"/><path d="M163,187.65a22.28,22.28,0,1,1-22.28,22.28A22.27,22.27,0,0,1,163,187.65" style="fill:#f4fbfe"/><path d="M163,187.65c-.62,0-1.23,0-1.83.07a22.28,22.28,0,0,1,0,44.41c.6.05,1.21.08,1.83.08a22.28,22.28,0,0,0,0-44.56" style="fill:#dbf0f3"/><path d="M163,194.5a.85.85,0,0,1-.86-.86v-1.26a.86.86,0,1,1,1.72,0v1.26a.85.85,0,0,1-.86.86" style="fill:#2c4e67"/><path d="M174.42,199.29a.86.86,0,0,1-.61-1.47l.9-.89a.86.86,0,0,1,1.22,0,.88.88,0,0,1,0,1.22l-.9.89a.85.85,0,0,1-.61.25" style="fill:#2c4e67"/><path d="M180.41,210.79h-1.27a.86.86,0,1,1,0-1.72h1.27a.86.86,0,1,1,0,1.72" style="fill:#2c4e67"/><path d="M175.25,223.16a.87.87,0,0,1-.61-.26l-.9-.89a.87.87,0,1,1,1.23-1.22l.89.89a.87.87,0,0,1-.61,1.48" style="fill:#2c4e67"/><path d="M162.86,228.25a.87.87,0,0,1-.87-.86v-1.27a.87.87,0,0,1,1.73,0v1.27a.87.87,0,0,1-.86.86" style="fill:#2c4e67"/><path d="M150.49,223.09a.85.85,0,0,1-.61-.25.88.88,0,0,1,0-1.22l.9-.9a.86.86,0,0,1,1.22,1.22l-.9.9a.85.85,0,0,1-.61.25" style="fill:#2c4e67"/><path d="M146.66,210.7H145.4a.87.87,0,0,1,0-1.73h1.26a.87.87,0,1,1,0,1.73" style="fill:#2c4e67"/><path d="M151.45,199.23a.9.9,0,0,1-.61-.25l-.89-.9a.86.86,0,0,1,1.22-1.22l.89.89a.87.87,0,0,1-.61,1.48" style="fill:#2c4e67"/><path d="M163,210.79h-7.33a.86.86,0,1,1,0-1.72h6.47v-11a.86.86,0,1,1,1.72,0v11.84a.85.85,0,0,1-.86.86" style="fill:#2c4e67"/><path d="M171.81,215.34a.93.93,0,0,1-.4-.09l-8.85-4.55a.87.87,0,1,1,.79-1.54l8.85,4.55a.87.87,0,0,1,.37,1.17.86.86,0,0,1-.76.46" style="fill:#db4b55"/><path d="M163,207.63a2.3,2.3,0,1,1-2.3,2.3,2.31,2.31,0,0,1,2.3-2.3" style="fill:#385e7e"/><path d="M298.52,181.33a28.6,28.6,0,1,1-28.6,28.6,28.6,28.6,0,0,1,28.6-28.6" style="fill:#eab24c"/><path d="M298.52,181.33c-.51,0-1,0-1.53,0a28.59,28.59,0,0,1,0,57.1c.51,0,1,0,1.53,0a28.6,28.6,0,0,0,0-57.19" style="fill:#e59543"/><path d="M298.52,187.65a22.28,22.28,0,1,1-22.29,22.28,22.28,22.28,0,0,1,22.29-22.28" style="fill:#f4fbfe"/><path d="M298.52,187.65c-.62,0-1.23,0-1.84.07a22.28,22.28,0,0,1,0,44.41c.61.05,1.22.08,1.84.08a22.28,22.28,0,1,0,0-44.56" style="fill:#dbf0f3"/><path d="M298.52,194.5a.86.86,0,0,1-.87-.86v-1.26a.87.87,0,1,1,1.73,0v1.26a.86.86,0,0,1-.86.86" style="fill:#2c4e67"/><path d="M310,199.29a.82.82,0,0,1-.61-.25.86.86,0,0,1,0-1.22l.89-.89a.86.86,0,0,1,1.22,1.22l-.89.89a.85.85,0,0,1-.61.25" style="fill:#2c4e67"/><path d="M316,210.79h-1.27a.86.86,0,1,1,0-1.72H316a.86.86,0,1,1,0,1.72" style="fill:#2c4e67"/><path d="M310.81,223.16a.87.87,0,0,1-.61-.26l-.89-.89a.86.86,0,1,1,1.22-1.22l.89.89a.86.86,0,0,1,0,1.22.83.83,0,0,1-.61.26" style="fill:#2c4e67"/><path d="M298.42,228.25a.87.87,0,0,1-.86-.86v-1.27a.87.87,0,0,1,1.73,0v1.27a.87.87,0,0,1-.87.86" style="fill:#2c4e67"/><path d="M286.06,223.09a.86.86,0,0,1-.61-1.47l.89-.9a.86.86,0,1,1,1.22,1.22l-.89.9a.85.85,0,0,1-.61.25" style="fill:#2c4e67"/><path d="M282.23,210.7H281a.87.87,0,0,1,0-1.73h1.27a.87.87,0,0,1,0,1.73" style="fill:#2c4e67"/><path d="M287,199.23a.9.9,0,0,1-.61-.25l-.9-.9a.88.88,0,0,1,0-1.22.86.86,0,0,1,1.22,0l.9.89a.87.87,0,0,1,0,1.23.9.9,0,0,1-.61.25" style="fill:#2c4e67"/><path d="M298.52,210.79h-7.33a.86.86,0,1,1,0-1.72h6.46v-11a.87.87,0,1,1,1.73,0v11.84a.86.86,0,0,1-.86.86" style="fill:#2c4e67"/><path d="M307.37,215.34a.89.89,0,0,1-.39-.09l-8.86-4.55a.87.87,0,0,1-.37-1.17.86.86,0,0,1,1.16-.37l8.86,4.55a.87.87,0,0,1,.37,1.17.88.88,0,0,1-.77.46" style="fill:#db4b55"/><path d="M298.52,207.63a2.3,2.3,0,1,1-2.31,2.3,2.3,2.3,0,0,1,2.31-2.3" style="fill:#385e7e"/><path d="M37.71,268A28.59,28.59,0,1,1,9.12,296.54,28.59,28.59,0,0,1,37.71,268" style="fill:#eab24c"/><path d="M37.71,268c-.51,0-1,0-1.52,0a28.59,28.59,0,0,1,0,57.1c.51,0,1,0,1.52,0a28.59,28.59,0,1,0,0-57.18" style="fill:#e59543"/><path d="M37.71,274.26a22.28,22.28,0,1,1-22.28,22.28,22.28,22.28,0,0,1,22.28-22.28" style="fill:#f4fbfe"/><path d="M37.71,274.26c-.61,0-1.22,0-1.83.07a22.29,22.29,0,0,1,0,44.42c.61,0,1.22.07,1.83.07a22.28,22.28,0,1,0,0-44.56" style="fill:#dbf0f3"/><path d="M37.71,281.12a.87.87,0,0,1-.86-.87V279a.87.87,0,1,1,1.73,0v1.26a.87.87,0,0,1-.87.87" style="fill:#2c4e67"/><path d="M49.18,285.91a.87.87,0,0,1-.61-.26.88.88,0,0,1,0-1.22l.9-.89a.86.86,0,1,1,1.22,1.22l-.9.89a.85.85,0,0,1-.61.26" style="fill:#2c4e67"/><path d="M55.17,297.4H53.91a.86.86,0,1,1,0-1.72h1.26a.86.86,0,1,1,0,1.72" style="fill:#2c4e67"/><path d="M50,309.77a.87.87,0,0,1-.61-.26l-.89-.89a.86.86,0,0,1,1.22-1.22l.89.89a.87.87,0,0,1-.61,1.48" style="fill:#2c4e67"/><path d="M37.62,314.86a.85.85,0,0,1-.86-.86v-1.27a.86.86,0,0,1,1.72,0V314a.85.85,0,0,1-.86.86" style="fill:#2c4e67"/><path d="M25.25,309.7a.85.85,0,0,1-.61-.25.88.88,0,0,1,0-1.22l.9-.9a.88.88,0,0,1,1.22,0,.86.86,0,0,1,0,1.22l-.9.9a.82.82,0,0,1-.61.25" style="fill:#2c4e67"/><path d="M21.43,297.31H20.16a.87.87,0,0,1,0-1.73h1.27a.87.87,0,0,1,0,1.73" style="fill:#2c4e67"/><path d="M26.22,285.84a.9.9,0,0,1-.61-.25l-.9-.9a.86.86,0,0,1,1.22-1.22l.9.89a.89.89,0,0,1,0,1.23.9.9,0,0,1-.61.25" style="fill:#2c4e67"/><path d="M37.71,297.4H30.38a.86.86,0,1,1,0-1.72h6.47v-11a.87.87,0,1,1,1.73,0v11.84a.86.86,0,0,1-.87.86" style="fill:#2c4e67"/><path d="M46.57,302a.82.82,0,0,1-.4-.1l-8.85-4.55a.87.87,0,0,1-.37-1.17.86.86,0,0,1,1.16-.37L47,300.33a.86.86,0,0,1,.38,1.16.89.89,0,0,1-.77.47" style="fill:#db4b55"/></g></g></svg>