<svg xmlns="http://www.w3.org/2000/svg" viewBox="0 0 298.83 299.47"><title>cube_small</title><g id="Layer_2" data-name="Layer 2"><g id="Layer_1-2" data-name="Layer 1"><path d="M50.55,125.63,25.83,113.27V88.55l24.72,12.36Zm24.72-12.36L50.55,100.91v24.72L75.27,138ZM100,125.63,75.27,113.27V138L100,150.35ZM124.7,138,100,125.63v24.72l24.72,12.36Zm24.71,12.36L124.7,138v24.72l24.71,12.36ZM25.83,113.27,1.12,100.91v24.71L25.83,138Zm24.72,12.36L25.83,113.27V138l24.72,12.37ZM75.27,138,50.55,125.63v24.72l24.72,12.36ZM100,150.35,75.27,138v24.72L100,175.07Zm24.72,12.36L100,150.35v24.72l24.72,12.36Zm24.71,12.36L124.7,162.71v24.72l24.71,12.36ZM25.83,138,1.12,125.62v24.72L25.83,162.7Zm24.72,12.37L25.83,138V162.7l24.72,12.36Zm24.72,12.36L50.55,150.35v24.71l24.72,12.36ZM100,175.07,75.27,162.71v24.71L100,199.78Zm24.72,12.36L100,175.07v24.71l24.72,12.36Zm24.71,12.36L124.7,187.43v24.71l24.71,12.36ZM25.83,162.7,1.12,150.34v24.72l24.71,12.36Zm24.72,12.36L25.83,162.7v24.72l24.72,12.36Zm24.72,12.36L50.55,175.06v24.72l24.72,12.36ZM100,199.78,75.27,187.42v24.72L100,224.5Zm24.72,12.36L100,199.78V224.5l24.72,12.36Zm24.71,12.36L124.7,212.14v24.72l24.71,12.36ZM25.83,187.42,1.12,175.06v24.71l24.71,12.36Zm24.72,12.36L25.83,187.42v24.71l24.72,12.36Zm24.72,12.36L50.55,199.78v24.71l24.72,12.36ZM100,224.5,75.27,212.14v24.71L100,249.21Zm24.72,12.36L100,224.5v24.71l24.72,12.37Zm24.71,12.36L124.7,236.86v24.72l24.71,12.36ZM25.83,212.13,1.12,199.77v24.72l24.71,12.36Zm24.72,12.36L25.83,212.13v24.72l24.72,12.36Zm24.72,12.36L50.55,224.49v24.72l24.72,12.36ZM100,249.21,75.27,236.85v24.72L100,273.93Zm24.72,12.37L100,249.21v24.72l24.72,12.36Zm24.71,12.36L124.7,261.58v24.71l24.71,12.36ZM25.83,62.36,1.12,74.72,25.83,87.08,50.55,74.72ZM50.55,50,25.83,62.36,50.55,74.72,75.27,62.36ZM75.27,37.64,50.55,50,75.27,62.36,100,50ZM100,25.28,75.27,37.64,100,50,124.7,37.64ZM124.7,12.92,100,25.28,124.7,37.64l24.71-12.36ZM149.41.56,124.7,12.92l24.71,12.36,24.72-12.36ZM50.55,74.72,25.83,87.08,50.55,99.44,75.27,87.08ZM75.27,62.36,50.55,74.72,75.27,87.08,100,74.72ZM100,50,75.27,62.36,100,74.72,124.7,62.36ZM124.7,37.64,100,50,124.7,62.36,149.41,50Zm24.71-12.36L124.7,37.64,149.41,50l24.72-12.36Zm24.72-12.36L149.41,25.28l24.72,12.36,24.72-12.36ZM75.27,87.08,50.55,99.44l24.72,12.37L100,99.44ZM100,74.72,75.27,87.08,100,99.44,124.7,87.08ZM124.7,62.36,100,74.72,124.7,87.08l24.71-12.36ZM149.41,50,124.7,62.36l24.71,12.36,24.72-12.36Zm24.72-12.36L149.41,50l24.72,12.36L198.85,50Zm24.72-12.36L174.13,37.64,198.85,50l24.71-12.36ZM100,99.44,75.27,111.8,100,124.17,124.7,111.8ZM124.7,87.08,100,99.44l24.72,12.37,24.71-12.37Zm24.71-12.36L124.7,87.08l24.71,12.36,24.72-12.36Zm24.72-12.36L149.41,74.72l24.72,12.36,24.72-12.36ZM198.85,50,174.13,62.36l24.72,12.36,24.71-12.36Zm24.71-12.36L198.85,50l24.71,12.36L248.28,50ZM124.7,111.8,100,124.17l24.72,12.36,24.71-12.36Zm24.71-12.36L124.7,111.8l24.71,12.37,24.72-12.37Zm24.72-12.36L149.41,99.44l24.72,12.37,24.72-12.37Zm24.72-12.36L174.13,87.08l24.72,12.36,24.71-12.36Zm24.71-12.36L198.85,74.72l24.71,12.36,24.72-12.36ZM248.28,50,223.56,62.36l24.72,12.36L273,62.36Zm-98.87,74.17L124.7,136.53l24.71,12.36,24.72-12.36Zm24.72-12.37-24.72,12.37,24.72,12.36,24.72-12.36Zm24.72-12.36L174.13,111.8l24.72,12.37,24.71-12.37Zm24.71-12.36L198.85,99.44l24.71,12.37,24.72-12.37Zm24.72-12.36L223.56,87.08l24.72,12.36L273,87.08ZM273,62.36,248.28,74.72,273,87.08l24.72-12.36ZM174.13,138l-24.72,12.36v24.72l24.72-12.36Zm24.72-12.36L174.13,138v24.72l24.72-12.36Zm24.71-12.36-24.71,12.36v24.72L223.56,138Zm24.72-12.36-24.72,12.36V138l24.72-12.36ZM273,88.56l-24.71,12.36v24.72L273,113.27ZM297.71,76.2,273,88.56v24.71l24.72-12.36ZM174.13,162.72l-24.72,12.36v24.71l24.72-12.36Zm24.72-12.36-24.72,12.36v24.71l24.72-12.36ZM223.56,138l-24.71,12.36v24.71l24.71-12.36Zm24.72-12.37L223.56,138v24.71l24.72-12.36ZM273,113.27l-24.71,12.36v24.72L273,138Zm24.72-12.36L273,113.27V138l24.72-12.36ZM174.13,187.43l-24.72,12.36v24.72l24.72-12.36Zm24.72-12.36-24.72,12.36v24.72l24.72-12.36Zm24.71-12.36-24.71,12.36v24.72l24.71-12.36Zm24.72-12.36-24.72,12.36v24.72l24.72-12.36ZM273,138l-24.71,12.36v24.72L273,162.71Zm24.72-12.36L273,138v24.72l24.72-12.36ZM174.13,212.15l-24.72,12.36v24.71l24.72-12.36Zm24.72-12.36-24.72,12.36v24.71l24.72-12.36Zm24.71-12.36-24.71,12.36V224.5l24.71-12.36Zm24.72-12.36-24.72,12.36v24.71l24.72-12.36ZM273,162.71l-24.71,12.36v24.71L273,187.42Zm24.72-12.36L273,162.71v24.71l24.72-12.36ZM174.13,236.86l-24.72,12.37v24.71l24.72-12.36Zm24.72-12.36-24.72,12.37v24.71l24.72-12.36Zm24.71-12.36L198.85,224.5v24.72l24.71-12.36Zm24.72-12.36-24.72,12.36v24.72l24.72-12.36ZM273,187.42l-24.71,12.36V224.5L273,212.14Zm24.72-12.36L273,187.42v24.72l24.72-12.36ZM174.13,261.58l-24.72,12.36v24.72l24.72-12.36Zm24.72-12.36-24.72,12.36V286.3l24.72-12.36Zm24.71-12.36-24.71,12.36v24.72l24.71-12.36Zm24.72-12.36-24.72,12.36v24.72l24.72-12.37ZM273,212.14,248.28,224.5v24.71L273,236.85ZM25.83,88.55,1.12,76.19v24.72l24.71,12.36ZM297.71,224.49,273,236.85V212.14l24.72-12.36Z" style="fill:none;stroke:#231f20;stroke-miterlimit:10"/></g></g></svg>